<?xml version="1.0" encoding="utf-8"?>
<!-- Generator: Adobe Illustrator 18.0.0, SVG Export Plug-In . SVG Version: 6.00 Build 0)  -->
<!DOCTYPE svg PUBLIC "-//W3C//DTD SVG 1.1//EN" "http://www.w3.org/Graphics/SVG/1.1/DTD/svg11.dtd">
<svg version="1.1" id="Layer_1" xmlns="http://www.w3.org/2000/svg" xmlns:xlink="http://www.w3.org/1999/xlink" x="0px" y="0px"
	 viewBox="0 0 800 400" enable-background="new 0 0 800 400" xml:space="preserve">
<g>
	<g>
		<path fill="#29ABE2" d="M339.6,305.5c1.6,1.5,2.7,3.3,3.5,5.3c0.8,2,1.2,4.3,1.2,6.7v13.1c0,2.8-0.6,5.4-1.7,7.8
			c-1.1,2.4-2.6,4.6-4.5,6.4c-1.9,1.8-4.1,3.3-6.7,4.3c-2.6,1.1-5.3,1.6-8.2,1.6h-24.6c-0.7,0-1.3-0.1-1.9-0.2
			c-0.6-0.2-0.9-0.8-0.9-2v-91.4c0-1.5,0.8-2.2,2.3-2.2h25.1c2.9,0,5.6,0.5,8.2,1.6c2.6,1.1,4.8,2.5,6.7,4.3
			c1.9,1.8,3.4,3.9,4.5,6.4c1.1,2.5,1.7,5.1,1.7,7.8v10.5c0,4.9-1.6,9-4.7,12.3c-1.7,1.7-3.7,3.1-6,4.2
			C336,302.8,338.1,304,339.6,305.5z M324.7,275.8c0-1.1-0.4-2-1.2-2.7c-0.8-0.7-1.7-1.1-2.8-1.1h-5.3v21.7h5.3
			c1.1,0,2.1-0.4,2.8-1.1c0.8-0.7,1.2-1.6,1.2-2.7V275.8z M324.7,314.9c0-1.1-0.4-2-1.2-2.7c-0.8-0.7-1.7-1.1-2.8-1.1h-5.3v22.5h5.3
			c1.1,0,2.1-0.4,2.8-1.1c0.8-0.7,1.2-1.7,1.2-2.7V314.9z"/>
		<path fill="#29ABE2" d="M376.4,348.5c0,1.5-0.8,2.2-2.3,2.2h-14.9c-1.6,0-2.3-0.7-2.3-2.2v-91.4c0-1.5,0.8-2.2,2.3-2.2H374
			c1.6,0,2.3,0.7,2.3,2.2V348.5z"/>
		<path fill="#29ABE2" d="M435.8,257.1v14.2c0,1.5-0.8,2.2-2.3,2.2h-11.9v74.9c0,1.5-0.8,2.2-2.3,2.2h-14.9c-0.6,0-1.1-0.2-1.6-0.6
			c-0.5-0.4-0.8-1-0.8-1.6v-74.9h-11.7c-1.6,0-2.3-0.7-2.3-2.2v-14.2c0-1.5,0.8-2.2,2.3-2.2h43.1C435,254.8,435.8,255.6,435.8,257.1
			z"/>
		<path fill="#29ABE2" d="M529.9,257.1l-18,91.4c-0.2,1.5-1.1,2.2-2.7,2.2h-14.7c-1.6,0-2.4-0.7-2.7-2.2l-5.8-33.4h-0.2l-5.8,33.4
			c-0.2,1.5-1.1,2.2-2.7,2.2h-14.7c-1.6,0-2.4-0.7-2.7-2.2l-18-91.4c-0.2-1.5,0.4-2.2,2-2.2h18c1.4,0,2.3,0.7,2.5,2.2l5.8,54h0.7
			l6.3-54c0.2-1.5,1.1-2.2,2.5-2.2H492c1.4,0,2.3,0.7,2.5,2.2l6.3,54h0.7l5.8-54c0.2-1.5,1.1-2.2,2.5-2.2h18
			C529.4,254.8,530.1,255.6,529.9,257.1z"/>
		<path fill="#29ABE2" d="M584.3,331.7c0,2.8-0.6,5.4-1.7,7.8c-1.1,2.5-2.6,4.6-4.5,6.4s-4.1,3.2-6.7,4.3c-2.6,1.1-5.3,1.6-8.2,1.6
			h-6.3c-2.9,0-5.6-0.5-8.2-1.6c-2.6-1.1-4.8-2.5-6.7-4.3c-1.9-1.8-3.4-3.9-4.5-6.4c-1.1-2.4-1.7-5.1-1.7-7.8v-57.8
			c0-2.8,0.6-5.4,1.7-7.8c1.1-2.4,2.6-4.6,4.5-6.4c1.9-1.8,4.1-3.2,6.7-4.3c2.6-1.1,5.3-1.6,8.2-1.6h6.3c2.9,0,5.6,0.5,8.2,1.6
			c2.6,1.1,4.8,2.5,6.7,4.3c1.9,1.8,3.4,3.9,4.5,6.4c1.1,2.5,1.7,5.1,1.7,7.8V331.7z M564.8,274.6c0-1.1-0.4-2-1.2-2.7
			c-0.8-0.7-1.7-1.1-2.8-1.1h-1.3c-1.1,0-2.1,0.4-2.8,1.1c-0.8,0.7-1.2,1.7-1.2,2.7v56.2c0,1.1,0.4,2,1.2,2.7
			c0.8,0.7,1.7,1.1,2.8,1.1h1.3c1.1,0,2.1-0.4,2.8-1.1c0.8-0.7,1.2-1.6,1.2-2.7V274.6z"/>
		<path fill="#29ABE2" d="M617.2,348.5c0,1.5-0.8,2.2-2.5,2.2h-14.9c-1.4,0-2.2-0.7-2.2-2.2v-91.4c0-1.5,0.8-2.2,2.3-2.2h25.1
			c2.9,0,5.6,0.5,8.2,1.6c2.6,1.1,4.8,2.5,6.7,4.3c1.9,1.8,3.4,3.9,4.5,6.4c1.1,2.5,1.7,5.1,1.7,7.8v19.7c0,3.9-1.2,7.5-3.7,10.6
			c-2.4,3.1-5.4,5.6-8.9,7.3l15.9,35.9c0.3,1.5-0.2,2.2-1.7,2.2h-15.2c-0.7,0-1.3-0.2-1.9-0.6c-0.6-0.4-1-1-1.3-1.6l-12.2-29.6
			V348.5z M617.2,297.7h5.3c1.1,0,2.1-0.4,2.8-1.1c0.8-0.7,1.2-1.6,1.2-2.7v-18.1c0-1.1-0.4-2-1.2-2.7c-0.8-0.7-1.7-1.1-2.8-1.1
			h-5.3V297.7z"/>
		<path fill="#29ABE2" d="M716.6,255.5c0.2,0.5,0.2,1,0,1.5l-22.7,40.7l22.4,50.6c0.2,0.5,0.2,1-0.2,1.5c-0.3,0.5-0.8,0.7-1.5,0.7
			h-16.5c-0.7,0-1.3-0.2-1.8-0.6c-0.6-0.4-0.9-0.8-1.2-1.4l-12.2-26.5l-2.8,5.1v21.1c0,1.5-0.8,2.2-2.3,2.2h-14.9
			c-1.6,0-2.3-0.7-2.3-2.2v-91.4c0-1.5,0.8-2.2,2.3-2.2h14.9c1.6,0,2.3,0.7,2.3,2.2v28l15.4-28.3c0.6-1.3,1.6-1.9,3.2-1.9h16.7
			C716,254.8,716.4,255.1,716.6,255.5z"/>
		<path fill="#29ABE2" d="M758.4,255.3c2.6,1.1,4.8,2.5,6.7,4.3c1.9,1.8,3.4,3.9,4.5,6.4c1.1,2.5,1.7,5.1,1.7,7.8v6.1
			c0,1.5-0.7,2.5-2.2,2.9l-15.2,3.8c-1.4,0.4-2.2-0.1-2.2-1.6v-10.4c0-1.1-0.4-2-1.2-2.7c-0.8-0.7-1.7-1.1-2.8-1.1h-1.3
			c-1.1,0-2.1,0.4-2.8,1.1c-0.8,0.7-1.2,1.7-1.2,2.7v9.7c0.1,1.2,0.3,2.2,0.7,3c0.3,0.9,0.9,1.7,1.8,2.6l21.9,15.7
			c1.8,1.5,2.9,3,3.4,4.6c0.5,1.5,0.9,3.3,1.1,5.2v16.3c0,2.8-0.6,5.4-1.7,7.8c-1.1,2.5-2.6,4.6-4.5,6.4c-1.9,1.8-4.1,3.2-6.7,4.3
			c-2.6,1.1-5.3,1.6-8.2,1.6h-6.3c-2.9,0-5.6-0.5-8.2-1.6c-2.6-1.1-4.8-2.5-6.7-4.3s-3.4-3.9-4.5-6.4c-1.1-2.4-1.7-5.1-1.7-7.8v-8.9
			c0-1.5,0.7-2.4,2.2-2.9l15.2-3.8c1.4-0.4,2.2,0.1,2.2,1.6v13.3c0,1.1,0.4,2,1.2,2.7c0.8,0.7,1.7,1.1,2.8,1.1h1.3
			c1.1,0,2.1-0.4,2.8-1.1c0.8-0.7,1.2-1.6,1.2-2.7V321c-0.1-1.4-0.3-2.6-0.7-3.7c-0.3-1.1-1-2-2-2.9l-21.5-15.8
			c-1.7-1.5-2.9-3-3.6-4.5s-1.1-3.5-1.1-5.9v-14.4c0-2.8,0.6-5.4,1.7-7.8c1.1-2.4,2.6-4.6,4.5-6.4c1.9-1.8,4.1-3.2,6.7-4.3
			c2.6-1.1,5.3-1.6,8.2-1.6h6.3C753.1,253.7,755.8,254.2,758.4,255.3z"/>
	</g>
	<g>
		<path fill="#29ABE2" d="M315.4,243.3c0,1.5-0.8,2.2-2.5,2.2H298c-1.4,0-2.2-0.7-2.2-2.2v-91.4c0-1.5,0.8-2.2,2.3-2.2h25.1
			c2.9,0,5.6,0.5,8.2,1.6c2.6,1.1,4.8,2.5,6.7,4.3c1.9,1.8,3.4,3.9,4.5,6.4c1.1,2.5,1.7,5.1,1.7,7.8v19.7c0,3.9-1.2,7.5-3.7,10.6
			c-2.4,3.1-5.4,5.6-8.9,7.3l15.9,35.9c0.3,1.5-0.2,2.2-1.7,2.2h-15.2c-0.7,0-1.3-0.2-1.9-0.6c-0.6-0.4-1-1-1.3-1.6l-12.2-29.6
			V243.3z M315.4,192.5h5.3c1.1,0,2.1-0.4,2.8-1.1c0.8-0.7,1.2-1.6,1.2-2.7v-18.1c0-1.1-0.4-2-1.2-2.7c-0.8-0.7-1.7-1.1-2.8-1.1
			h-5.3V192.5z"/>
		<path fill="#29ABE2" d="M378.2,243.3c0,1.5-0.8,2.2-2.3,2.2H361c-1.6,0-2.3-0.7-2.3-2.2v-91.4c0-1.5,0.8-2.2,2.3-2.2h14.9
			c1.6,0,2.3,0.7,2.3,2.2V243.3z"/>
		<path fill="#29ABE2" d="M447,151.9l-19.7,91.4c-0.2,1.5-1.1,2.2-2.7,2.2h-14.7c-1.6,0-2.4-0.7-2.7-2.2l-19.7-91.4
			c-0.2-1.5,0.4-2.2,2-2.2h18c1.4,0,2.3,0.7,2.5,2.2l6.9,59.8h0.7l6.8-59.8c0.2-1.5,1.1-2.2,2.5-2.2h18
			C446.6,149.7,447.2,150.5,447,151.9z"/>
		<path fill="#29ABE2" d="M497.3,229.1v14.2c0,1.5-0.8,2.2-2.3,2.2h-36.2c-1.6,0-2.3-0.7-2.3-2.2v-91.4c0-1.5,0.8-2.2,2.3-2.2H495
			c1.6,0,2.3,0.7,2.3,2.2v14.2c0,1.5-0.8,2.2-2.3,2.2h-19v18.2h16.5c1.6,0,2.3,0.7,2.3,2.2v14.2c0,1.5-0.8,2.2-2.3,2.2h-16.5v21.6
			h19C496.5,226.9,497.3,227.6,497.3,229.1z"/>
		<path fill="#29ABE2" d="M531,243.3c0,1.5-0.8,2.2-2.5,2.2h-14.9c-1.4,0-2.2-0.7-2.2-2.2v-91.4c0-1.5,0.8-2.2,2.3-2.2h25.1
			c2.9,0,5.6,0.5,8.2,1.6c2.6,1.1,4.8,2.5,6.7,4.3s3.4,3.9,4.5,6.4c1.1,2.5,1.7,5.1,1.7,7.8v19.7c0,3.9-1.2,7.5-3.7,10.6
			c-2.4,3.1-5.4,5.6-8.9,7.3l15.9,35.9c0.3,1.5-0.2,2.2-1.7,2.2h-15.2c-0.7,0-1.3-0.2-1.9-0.6c-0.6-0.4-1-1-1.3-1.6L531,213.8V243.3
			z M531,192.5h5.3c1.1,0,2.1-0.4,2.8-1.1c0.8-0.7,1.2-1.6,1.2-2.7v-18.1c0-1.1-0.4-2-1.2-2.7c-0.8-0.7-1.7-1.1-2.8-1.1H531V192.5z"
			/>
	</g>
	<g>
		<path fill="#29ABE2" d="M339.6,95.2c1.6,1.5,2.7,3.3,3.5,5.3c0.8,2,1.2,4.3,1.2,6.7v13.1c0,2.8-0.6,5.4-1.7,7.8
			c-1.1,2.4-2.6,4.6-4.5,6.4c-1.9,1.8-4.1,3.3-6.7,4.3c-2.6,1.1-5.3,1.6-8.2,1.6h-24.6c-0.7,0-1.3-0.1-1.9-0.2
			c-0.6-0.2-0.9-0.8-0.9-2V46.8c0-1.5,0.8-2.2,2.3-2.2h25.1c2.9,0,5.6,0.5,8.2,1.6c2.6,1.1,4.8,2.5,6.7,4.3c1.9,1.8,3.4,3.9,4.5,6.4
			c1.1,2.5,1.7,5.1,1.7,7.8v10.5c0,4.9-1.6,9-4.7,12.3c-1.7,1.7-3.7,3.1-6,4.2C336,92.6,338.1,93.7,339.6,95.2z M324.7,65.5
			c0-1.1-0.4-2-1.2-2.7c-0.8-0.7-1.7-1.1-2.8-1.1h-5.3v21.7h5.3c1.1,0,2.1-0.4,2.8-1.1c0.8-0.7,1.2-1.6,1.2-2.7V65.5z M324.7,104.7
			c0-1.1-0.4-2-1.2-2.7c-0.8-0.7-1.7-1.1-2.8-1.1h-5.3v22.5h5.3c1.1,0,2.1-0.4,2.8-1.1c0.8-0.7,1.2-1.7,1.2-2.7V104.7z"/>
		<path fill="#29ABE2" d="M403.6,46.8v74.6c0,2.8-0.6,5.4-1.7,7.8c-1.1,2.5-2.6,4.6-4.5,6.4c-1.9,1.8-4.1,3.2-6.7,4.3
			c-2.6,1.1-5.3,1.6-8.2,1.6h-6.3c-2.9,0-5.6-0.5-8.2-1.6c-2.6-1.1-4.8-2.5-6.7-4.3c-1.9-1.8-3.4-3.9-4.5-6.4
			c-1.1-2.4-1.7-5.1-1.7-7.8V46.8c0-1.5,0.8-2.2,2.3-2.2h14.9c1.6,0,2.3,0.7,2.3,2.2v73.8c0,1.1,0.4,2,1.2,2.7
			c0.8,0.7,1.7,1.1,2.8,1.1h1.3c1.1,0,2.1-0.4,2.8-1.1c0.8-0.7,1.2-1.6,1.2-2.7V46.8c0-1.5,0.8-2.2,2.3-2.2h14.9
			C402.8,44.6,403.6,45.3,403.6,46.8z"/>
		<path fill="#29ABE2" d="M436.5,138.2c0,1.5-0.8,2.2-2.5,2.2h-14.9c-1.4,0-2.2-0.7-2.2-2.2V46.8c0-1.5,0.8-2.2,2.3-2.2h25.1
			c2.9,0,5.6,0.5,8.2,1.6c2.6,1.1,4.8,2.5,6.7,4.3c1.9,1.8,3.4,3.9,4.5,6.4c1.1,2.5,1.7,5.1,1.7,7.8v19.7c0,3.9-1.2,7.5-3.7,10.6
			c-2.4,3.1-5.4,5.6-8.9,7.3l15.9,35.9c0.3,1.5-0.2,2.2-1.7,2.2h-15.2c-0.7,0-1.3-0.2-1.9-0.6c-0.6-0.4-1-1-1.3-1.6l-12.2-29.6
			V138.2z M436.5,87.4h5.3c1.1,0,2.1-0.4,2.8-1.1c0.8-0.7,1.2-1.6,1.2-2.7V65.5c0-1.1-0.4-2-1.2-2.7c-0.8-0.7-1.7-1.1-2.8-1.1h-5.3
			V87.4z"/>
		<path fill="#29ABE2" d="M533.2,46.8v91.4c0,1.5-0.8,2.2-2.3,2.2h-10.7c-0.7,0-1.3-0.2-1.9-0.6c-0.6-0.4-1-0.9-1.3-1.4l-17.7-41.7
			v41.5c0,1.5-0.8,2.2-2.3,2.2h-14.9c-1.6,0-2.3-0.7-2.3-2.2V46.8c0-1.5,0.8-2.2,2.3-2.2h11c0.7,0,1.3,0.2,1.9,0.6
			c0.6,0.4,1,0.9,1.3,1.4l17.4,46.5V46.8c0-1.5,0.8-2.2,2.3-2.2h14.9C532.4,44.6,533.2,45.3,533.2,46.8z"/>
		<path fill="#29ABE2" d="M567.8,138.2c0,1.5-0.8,2.2-2.3,2.2h-14.9c-1.6,0-2.3-0.7-2.3-2.2V46.8c0-1.5,0.8-2.2,2.3-2.2h14.9
			c1.6,0,2.3,0.7,2.3,2.2V138.2z"/>
		<path fill="#29ABE2" d="M636.3,46.8v91.4c0,1.5-0.8,2.2-2.3,2.2h-10.7c-0.7,0-1.3-0.2-1.9-0.6c-0.6-0.4-1-0.9-1.3-1.4l-17.7-41.7
			v41.5c0,1.5-0.8,2.2-2.3,2.2h-14.9c-1.6,0-2.3-0.7-2.3-2.2V46.8c0-1.5,0.8-2.2,2.3-2.2h11c0.7,0,1.3,0.2,1.9,0.6
			c0.6,0.4,1,0.9,1.3,1.4l17.4,46.5V46.8c0-1.5,0.8-2.2,2.3-2.2h14.9C635.5,44.6,636.3,45.3,636.3,46.8z"/>
		<path fill="#29ABE2" d="M685.2,45.1c2.6,1.1,4.8,2.5,6.7,4.3c1.9,1.8,3.4,3.9,4.5,6.4c1.1,2.5,1.7,5.1,1.7,7.8v3.5
			c0,1.5-0.7,2.4-2.2,2.9l-15.2,5.3c-1.4,0.4-2.2-0.1-2.2-1.6v-9.3c0-1.1-0.4-2-1.2-2.7c-0.8-0.7-1.7-1.1-2.8-1.1h-1.3
			c-1.1,0-2.1,0.4-2.8,1.1s-1.2,1.7-1.2,2.7v56.2c0,1.1,0.4,2,1.2,2.7c0.8,0.7,1.7,1.1,2.8,1.1h1.3c1.1,0,2.1-0.4,2.8-1.1
			c0.8-0.7,1.2-1.6,1.2-2.7v-17.3h-4.7V85.2h21.9c1.6,0,2.3,0.7,2.3,2.2v34c0,2.8-0.6,5.4-1.7,7.8c-1.1,2.5-2.6,4.6-4.5,6.4
			s-4.1,3.2-6.7,4.3c-2.6,1.1-5.3,1.6-8.2,1.6h-6.3c-2.9,0-5.6-0.5-8.2-1.6c-2.6-1.1-4.8-2.5-6.7-4.3c-1.9-1.8-3.4-3.9-4.5-6.4
			c-1.1-2.4-1.7-5.1-1.7-7.8V63.6c0-2.8,0.6-5.4,1.7-7.8c1.1-2.4,2.6-4.6,4.5-6.4c1.9-1.8,4.1-3.2,6.7-4.3c2.6-1.1,5.3-1.6,8.2-1.6
			h6.3C679.9,43.5,682.7,44,685.2,45.1z"/>
	</g>
	<g>
		<polygon fill="#8E8E8E" points="270.5,44.1 245,44.1 238.1,215.9 277.4,215.9 		"/>
		<polygon fill="#8E8E8E" points="210.4,110 184.9,110 178,215.9 217.3,215.9 		"/>
		<path fill="#8E8E8E" d="M32.2,224.7v123.2C59.8,360,85.7,360.6,111,357c54.7-7.8,106.4-35.7,166.5-9.3V224.7H32.2z M172,294.6
			c0,1.2-0.6,2.3-1.4,2.4l-15.2,2.6c-1,4.3-2.7,8.3-4.9,11.9l9,12.6c0.5,0.7,0.2,1.9-0.7,2.7l-6.9,6.9c-0.8,0.8-2.1,1.2-2.7,0.7
			l-12.6-9c-3.6,2.2-7.7,3.9-11.9,4.9l-2.5,15.2c-0.1,0.8-1.2,1.4-2.4,1.4h-9.8c-1.2,0-2.3-0.6-2.4-1.4l-2.5-15.2
			c-4.3-1-8.3-2.7-11.9-4.9l-12.6,9c-0.7,0.5-1.9,0.2-2.7-0.7l-6.9-6.9c-0.8-0.8-1.2-2.1-0.7-2.7l9-12.6c-2.2-3.7-3.9-7.7-4.9-11.9
			L58.8,297c-0.8-0.1-1.4-1.2-1.4-2.4l0-9.8c0-1.2,0.6-2.3,1.4-2.4l15.2-2.6c1-4.3,2.7-8.3,4.9-11.9l-9-12.6
			c-0.5-0.7-0.2-1.9,0.7-2.7l6.9-6.9c0.8-0.8,2.1-1.2,2.7-0.7l12.6,9c3.7-2.2,7.7-3.9,11.9-4.9l2.5-15.2c0.1-0.8,1.2-1.4,2.4-1.4
			h9.8c1.2,0,2.3,0.6,2.4,1.4l2.5,15.2c4.3,1,8.3,2.7,11.9,4.9l12.6-9c0.7-0.5,1.9-0.2,2.7,0.7l6.9,6.9c0.8,0.8,1.2,2.1,0.7,2.7
			l-9,12.6c2.2,3.6,3.9,7.7,4.9,11.9l15.2,2.6c0.8,0.1,1.4,1.2,1.4,2.4V294.6z"/>
		<path fill="#8E8E8E" d="M114.7,258.4c-17.2,0-31.2,14-31.2,31.2c0,17.2,14,31.2,31.2,31.2c17.2,0,31.2-14,31.2-31.2
			C145.9,272.5,131.9,258.4,114.7,258.4z"/>
	</g>
</g>
</svg>
